<svg width="40" height="40" viewBox="0 0 40 40" fill="none" xmlns="http://www.w3.org/2000/svg">
<rect width="40" height="40" rx="20" fill="#4A677F"/>
<path d="M16.702 34.328C16.702 35.8227 15.2453 36.57 12.332 36.57C11.6987 36.57 11.3187 36.2533 11.192 35.62C11.0907 34.9613 11.04 34.0493 11.04 32.884C11.04 30.4267 11.534 27.3867 12.522 23.764C14.1687 17.7853 15.9293 14.264 17.804 13.2C18.0573 13.048 18.336 12.972 18.64 12.972C18.944 12.972 19.096 13.466 19.096 14.454C19.096 15.442 19.0453 16.316 18.944 17.076C18.7413 18.596 18.374 20.5593 17.842 22.966C17.3353 25.3727 17.082 26.7913 17.082 27.222L16.702 34.328ZM19.286 24.106C19.286 23.7767 19.4633 23.5613 19.818 23.46C20.198 23.3587 20.6667 23.27 21.224 23.194C21.7813 23.0927 22.3893 22.9533 23.048 22.776C23.7067 22.5987 24.3147 22.2693 24.872 21.788C26.164 20.6733 26.81 18.8113 26.81 16.202C26.81 14.53 26.24 13.2507 25.1 12.364C23.9853 11.4773 22.364 11.034 20.236 11.034C18.1333 11.034 16.1573 11.4773 14.308 12.364C13.624 12.6933 13.0033 12.9973 12.446 13.276C11.914 13.5547 11.42 13.694 10.964 13.694C10.508 13.694 10.28 13.5547 10.28 13.276C10.28 12.8453 10.698 12.136 11.534 11.148C12.37 10.236 13.6873 9.38733 15.486 8.602C17.31 7.81667 19.2227 7.424 21.224 7.424C24.9987 7.39867 27.9373 8.28533 30.04 10.084C31.864 11.6547 32.776 13.694 32.776 16.202C32.776 18.6847 31.8767 20.914 30.078 22.89C28.2793 24.8407 26.0247 25.816 23.314 25.816C20.6287 25.816 19.286 25.246 19.286 24.106Z" fill="white"/>
</svg>
